<svg xmlns="http://www.w3.org/2000/svg" xmlns:v="https://svgstorm.com"
viewBox = "0 0 1000 1000"
width="1000"
height="1000">
<g fill="None" fill-opacity="0.0" stroke="#000000" stroke-opacity="0.00" stroke-width="0.3"><path d="
M 0.00 1000.00 
L 1000.00 1000.00
L 1000.00 0.00
L 0.00 0.00
L 0.00 1000.00
M 627.00 264.00 
C 627.43 268.63 627.62 275.19 626.00 279.00
C 626.00 279.50 626.00 280.50 626.00 281.00
C 627.69 284.97 626.36 289.24 626.00 293.00
C 626.00 308.03 625.23 323.22 626.00 339.00 C 626.77 354.78 623.76 373.64 626.00 389.00 C 628.24 404.36 624.85 413.80 613.75 422.75 C 602.65 431.71 598.49 439.07 588.75 447.75 C 579.01 456.44 572.55 464.34 563.75 472.75 C 554.95 481.16 547.45 489.19 538.75 497.75 C 530.05 506.31 522.27 514.21 513.75 522.75 C 505.24 531.30 497.20 539.08 488.75 547.75 C 480.30 556.43 472.21 563.93 463.75 572.75 C 455.29 581.57 446.59 594.05 438.08 582.92 C 429.58 571.79 422.82 566.52 414.00 559.00
C 411.98 557.27 410.54 554.83 410.00 554.00
C 402.11 546.11 394.25 539.07 384.26 534.74 C 374.26 530.42 360.46 532.73 349.00 533.00
C 340.47 538.94 331.64 543.57 323.75 553.75 C 315.86 563.93 306.92 567.46 298.75 576.75 C 290.58 586.04 283.83 596.72 270.98 594.98 C 258.12 593.23 246.90 593.59 235.92 588.07 C 224.94 582.54 216.38 575.35 209.75 566.25 C 203.13 557.14 199.49 551.62 196.10 539.90 C 192.71 528.19 194.08 513.47 194.00 498.00 C 193.92 482.53 193.99 464.13 194.00 448.00 C 194.01 431.87 193.90 413.28 194.00 397.00 C 194.10 380.72 193.74 363.06 194.00 347.00 C 194.26 330.94 193.41 312.44 194.00 297.00 C 194.59 281.56 192.72 263.69 193.81 252.75 C 194.91 241.80 198.75 233.38 203.80 222.75 C 208.85 212.13 219.10 204.23 227.56 199.22 C 236.03 194.22 244.72 189.15 256.67 187.67 C 268.62 186.19 284.28 187.08 298.00 187.00 C 311.72 186.92 330.33 187.06 345.00 187.00 C 359.67 186.94 374.26 186.27 389.02 186.98 C 403.79 187.68 417.61 185.96 432.08 186.07 C 446.54 186.18 463.93 188.37 479.00 187.00 C 494.07 185.63 511.69 188.11 527.00 187.00 C 542.31 185.89 559.44 188.02 571.30 190.71 C 583.15 193.39 589.83 197.30 598.75 204.59 C 607.67 211.87 615.56 219.95 619.71 230.30 C 623.86 240.66 625.69 250.76 627.00 264.00
M 308.00 707.00 
C 302.86 713.01 296.96 718.91 291.00 724.00
C 273.79 738.70 264.74 754.32 247.81 766.26 C 230.89 778.19 203.97 770.20 198.69 749.30 C 193.41 728.40 210.24 713.50 226.25 700.25 C 242.25 687.00 253.05 669.49 268.25 656.25 C 283.44 643.01 294.90 627.16 311.25 613.25 C 327.59 599.34 338.80 583.86 355.75 569.75 C 372.70 555.64 388.31 583.37 402.25 595.75 C 416.18 608.13 432.22 626.10 446.00 640.00
C 541.81 546.03 634.07 450.35 731.00 355.00
C 727.94 347.13 717.37 342.79 713.25 335.75 C 709.13 328.71 696.36 325.10 696.41 316.25 C 696.45 307.41 708.83 306.12 716.01 305.01 C 723.19 303.89 736.27 300.16 744.00 299.00
C 742.94 296.27 751.55 297.69 758.00 296.00 C 764.45 294.31 766.46 294.48 773.70 292.69 C 780.93 290.90 794.32 288.10 803.02 286.02 C 811.73 283.95 811.29 284.59 818.22 282.22 C 825.16 279.86 828.25 281.03 832.13 279.08 C 836.01 277.13 843.46 277.40 848.00 281.00
C 851.26 290.78 842.81 298.70 842.67 308.67 C 842.54 318.65 836.71 330.16 835.74 339.75 C 834.76 349.34 828.69 363.28 827.23 374.23 C 825.76 385.18 821.80 398.14 819.94 409.08 C 818.07 420.02 812.36 431.94 800.92 423.08 C 789.49 414.22 787.47 409.05 777.00 399.00
C 762.63 411.41 754.85 417.14 743.25 429.25 C 731.65 441.36 717.26 453.31 707.75 464.75 C 698.24 476.19 684.39 490.08 671.75 500.75 C 659.11 511.42 646.33 526.60 634.25 538.25 C 622.17 549.90 608.52 563.11 597.25 575.25 C 585.97 587.39 575.05 600.58 561.75 612.75 C 548.45 624.92 538.73 637.75 525.25 650.25 C 511.76 662.74 502.26 673.45 489.75 685.75 C 477.25 698.06 466.71 714.43 448.99 716.99 C 431.27 719.56 416.33 698.27 404.25 686.75 C 392.16 675.24 378.63 661.11 367.00 649.00
C 346.29 667.05 328.09 687.80 308.00 707.00 Z"/>
</g>
<g fill="None" fill-opacity="0.0" stroke="#000000" stroke-opacity="0.99" stroke-width="0.3"><path d="
M 410.00 554.00 
C 411.70 555.70 412.71 557.39 414.00 559.00
C 422.82 566.52 429.58 571.79 438.08 582.92 C 446.59 594.05 455.29 581.57 463.75 572.75 C 472.21 563.93 480.30 556.43 488.75 547.75 C 497.20 539.08 505.24 531.30 513.75 522.75 C 522.27 514.21 530.05 506.31 538.75 497.75 C 547.45 489.19 554.95 481.16 563.75 472.75 C 572.55 464.34 579.01 456.44 588.75 447.75 C 598.49 439.07 602.65 431.71 613.75 422.75 C 624.85 413.80 628.24 404.36 626.00 389.00 C 623.76 373.64 626.77 354.78 626.00 339.00 C 625.23 323.22 626.00 308.03 626.00 293.00
C 626.00 289.00 626.00 285.00 626.00 281.00
C 626.00 280.50 626.00 279.50 626.00 279.00
C 626.00 274.16 626.99 268.02 627.00 264.00
C 625.69 250.76 623.86 240.66 619.71 230.30 C 615.56 219.95 607.67 211.87 598.75 204.59 C 589.83 197.30 583.15 193.39 571.30 190.71 C 559.44 188.02 542.31 185.89 527.00 187.00 C 511.69 188.11 494.07 185.63 479.00 187.00 C 463.93 188.37 446.54 186.18 432.08 186.07 C 417.61 185.96 403.79 187.68 389.02 186.98 C 374.26 186.27 359.67 186.94 345.00 187.00 C 330.33 187.06 311.72 186.92 298.00 187.00 C 284.28 187.08 268.62 186.19 256.67 187.67 C 244.72 189.15 236.03 194.22 227.56 199.22 C 219.10 204.23 208.85 212.13 203.80 222.75 C 198.75 233.38 194.91 241.80 193.81 252.75 C 192.72 263.69 194.59 281.56 194.00 297.00 C 193.41 312.44 194.26 330.94 194.00 347.00 C 193.74 363.06 194.10 380.72 194.00 397.00 C 193.90 413.28 194.01 431.87 194.00 448.00 C 193.99 464.13 193.92 482.53 194.00 498.00 C 194.08 513.47 192.71 528.19 196.10 539.90 C 199.49 551.62 203.13 557.14 209.75 566.25 C 216.38 575.35 224.94 582.54 235.92 588.07 C 246.90 593.59 258.12 593.23 270.98 594.98 C 283.83 596.72 290.58 586.04 298.75 576.75 C 306.92 567.46 315.86 563.93 323.75 553.75 C 331.64 543.57 340.47 538.94 349.00 533.00
C 360.46 532.73 374.26 530.42 384.26 534.74 C 394.25 539.07 402.11 546.11 410.00 554.00
M 385.00 271.00 
C 387.63 268.77 387.95 264.13 387.00 260.00 C 386.05 255.87 388.24 250.29 389.00 248.00
C 389.14 244.73 390.13 243.06 393.00 240.00
C 400.62 243.78 417.30 237.18 423.25 243.75 C 429.19 250.33 424.13 260.77 426.00 271.00
C 430.47 272.65 437.86 271.73 444.03 273.98 C 450.20 276.22 454.28 281.54 460.68 284.32 C 467.08 287.10 469.28 295.49 474.92 299.08 C 480.55 302.67 481.72 311.81 486.00 314.00
C 486.06 319.00 485.07 323.97 484.00 328.00
C 470.37 329.14 458.13 333.98 445.00 335.00
C 440.73 323.60 436.44 312.47 424.75 308.80 C 413.06 305.14 395.07 302.61 383.92 310.92 C 372.77 319.23 373.21 337.55 382.25 345.75 C 391.28 353.95 404.05 356.33 415.75 359.26 C 427.44 362.19 438.27 364.43 451.07 368.93 C 463.88 373.42 473.82 379.36 481.77 390.23 C 489.72 401.10 491.24 404.19 492.65 419.69 C 494.05 435.20 491.21 446.01 485.41 456.75 C 479.60 467.48 470.60 477.96 460.70 483.70 C 450.81 489.45 437.44 493.35 426.00 494.00
C 427.27 501.46 424.09 510.31 426.00 516.00
C 415.85 521.76 401.89 517.75 391.00 519.00
C 386.56 511.34 389.13 501.61 389.00 494.00
C 377.04 491.57 370.45 491.04 362.08 486.87 C 353.71 482.70 345.10 477.31 337.75 468.25 C 330.40 459.18 327.07 453.72 324.68 442.32 C 322.29 430.93 341.74 431.35 345.00 427.00
C 351.23 428.37 357.88 425.37 364.00 426.00
C 368.13 438.22 374.13 453.68 391.22 457.78 C 408.31 461.87 427.60 461.74 440.75 448.75 C 453.90 435.77 443.92 417.27 432.23 411.42 C 420.54 405.58 405.96 403.60 390.92 399.94 C 375.88 396.27 363.62 392.66 349.92 382.08 C 336.22 371.50 330.95 358.62 330.00 341.00 C 329.05 323.38 332.49 306.38 344.23 294.23 C 355.97 282.08 370.89 272.53 385.00 271.00 Z"/>
</g>
<g fill="None" fill-opacity="0.0" stroke="#000000" stroke-opacity="0.01" stroke-width="0.3"><path d="
M 389.00 248.00 
C 388.67 255.68 392.00 267.91 385.00 271.00
C 370.89 272.53 355.97 282.08 344.23 294.23 C 332.49 306.38 329.05 323.38 330.00 341.00 C 330.95 358.62 336.22 371.50 349.92 382.08 C 363.62 392.66 375.88 396.27 390.92 399.94 C 405.96 403.60 420.54 405.58 432.23 411.42 C 443.92 417.27 453.90 435.77 440.75 448.75 C 427.60 461.74 408.31 461.87 391.22 457.78 C 374.13 453.68 368.13 438.22 364.00 426.00
C 357.88 425.37 351.23 428.37 345.00 427.00
C 341.74 431.35 322.29 430.93 324.68 442.32 C 327.07 453.72 330.40 459.18 337.75 468.25 C 345.10 477.31 353.71 482.70 362.08 486.87 C 370.45 491.04 377.04 491.57 389.00 494.00
C 389.13 501.61 386.56 511.34 391.00 519.00
C 401.89 517.75 415.85 521.76 426.00 516.00
C 424.09 510.31 427.27 501.46 426.00 494.00
C 437.44 493.35 450.81 489.45 460.70 483.70 C 470.60 477.96 479.60 467.48 485.41 456.75 C 491.21 446.01 494.05 435.20 492.65 419.69 C 491.24 404.19 489.72 401.10 481.77 390.23 C 473.82 379.36 463.88 373.42 451.07 368.93 C 438.27 364.43 427.44 362.19 415.75 359.26 C 404.05 356.33 391.28 353.95 382.25 345.75 C 373.21 337.55 372.77 319.23 383.92 310.92 C 395.07 302.61 413.06 305.14 424.75 308.80 C 436.44 312.47 440.73 323.60 445.00 335.00
C 458.13 333.98 470.37 329.14 484.00 328.00
C 485.07 323.97 486.06 319.00 486.00 314.00
C 481.72 311.81 480.55 302.67 474.92 299.08 C 469.28 295.49 467.08 287.10 460.68 284.32 C 454.28 281.54 450.20 276.22 444.03 273.98 C 437.86 271.73 430.47 272.65 426.00 271.00
C 424.13 260.77 429.19 250.33 423.25 243.75 C 417.30 237.18 400.62 243.78 393.00 240.00
C 390.13 243.06 389.14 244.73 389.00 248.00
M 455.00 484.00 
C 455.61 484.61 453.34 482.34 455.00 484.00 Z"/>
</g>
<g fill="None" fill-opacity="0.0" stroke="#030404" stroke-opacity="0.45" stroke-width="0.3"><path d="
M 385.00 271.00 
C 392.00 267.91 388.67 255.68 389.00 248.00
C 388.24 250.29 386.05 255.87 387.00 260.00 C 387.95 264.13 387.63 268.77 385.00 271.00 Z"/>
</g>
<g fill="None" fill-opacity="0.0" stroke="#555555" stroke-opacity="0.02" stroke-width="0.3"><path d="
M 626.00 279.00 
C 627.62 275.19 627.43 268.63 627.00 264.00
C 626.99 268.02 626.00 274.16 626.00 279.00 Z"/>
</g>
<g fill="None" fill-opacity="0.0" stroke="#000001" stroke-opacity="0.98" stroke-width="0.3"><path d="
M 291.00 724.00 
C 296.59 718.41 302.46 712.54 308.00 707.00
C 328.09 687.80 346.29 667.05 367.00 649.00
C 378.63 661.11 392.16 675.24 404.25 686.75 C 416.33 698.27 431.27 719.56 448.99 716.99 C 466.71 714.43 477.25 698.06 489.75 685.75 C 502.26 673.45 511.76 662.74 525.25 650.25 C 538.73 637.75 548.45 624.92 561.75 612.75 C 575.05 600.58 585.97 587.39 597.25 575.25 C 608.52 563.11 622.17 549.90 634.25 538.25 C 646.33 526.60 659.11 511.42 671.75 500.75 C 684.39 490.08 698.24 476.19 707.75 464.75 C 717.26 453.31 731.65 441.36 743.25 429.25 C 754.85 417.14 762.63 411.41 777.00 399.00
C 787.47 409.05 789.49 414.22 800.92 423.08 C 812.36 431.94 818.07 420.02 819.94 409.08 C 821.80 398.14 825.76 385.18 827.23 374.23 C 828.69 363.28 834.76 349.34 835.74 339.75 C 836.71 330.16 842.54 318.65 842.67 308.67 C 842.81 298.70 851.26 290.78 848.00 281.00
C 843.46 277.40 836.01 277.13 832.13 279.08 C 828.25 281.03 825.16 279.86 818.22 282.22 C 811.29 284.59 811.73 283.95 803.02 286.02 C 794.32 288.10 780.93 290.90 773.70 292.69 C 766.46 294.48 764.45 294.31 758.00 296.00 C 751.55 297.69 742.94 296.27 744.00 299.00
C 736.27 300.16 723.19 303.89 716.01 305.01 C 708.83 306.12 696.45 307.41 696.41 316.25 C 696.36 325.10 709.13 328.71 713.25 335.75 C 717.37 342.79 727.94 347.13 731.00 355.00
C 634.07 450.35 541.81 546.03 446.00 640.00
C 432.22 626.10 416.18 608.13 402.25 595.75 C 388.31 583.37 372.70 555.64 355.75 569.75 C 338.80 583.86 327.59 599.34 311.25 613.25 C 294.90 627.16 283.44 643.01 268.25 656.25 C 253.05 669.49 242.25 687.00 226.25 700.25 C 210.24 713.50 193.41 728.40 198.69 749.30 C 203.97 770.20 230.89 778.19 247.81 766.26 C 264.74 754.32 273.79 738.70 291.00 724.00 Z"/>
</g>
<g fill="None" fill-opacity="0.0" stroke="#383838" stroke-opacity="0.03" stroke-width="0.3"><path d="
M 626.00 293.00 
C 626.36 289.24 627.69 284.97 626.00 281.00
C 626.00 285.00 626.00 289.00 626.00 293.00 Z"/>
</g>
<g fill="None" fill-opacity="0.0" stroke="#A5A5A5" stroke-opacity="0.01" stroke-width="0.3"><path d="
M 455.00 484.00 
C 453.34 482.34 455.61 484.61 455.00 484.00 Z"/>
</g>
<g fill="None" fill-opacity="0.0" stroke="#6B6969" stroke-opacity="0.23" stroke-width="0.3"><path d="
M 414.00 559.00 
C 412.71 557.39 411.70 555.70 410.00 554.00
C 410.54 554.83 411.98 557.27 414.00 559.00 Z"/>
</g>
<g fill="None" fill-opacity="0.0" stroke="#323232" stroke-opacity="0.03" stroke-width="0.3"><path d="
M 291.00 724.00 
C 296.96 718.91 302.86 713.01 308.00 707.00
C 302.46 712.54 296.59 718.41 291.00 724.00 Z"/>
</g>
<g fill="#000000" fill-opacity="0.00" stroke="None">
<path d="
M 0.00 1000.00 
L 1000.00 1000.00
L 1000.00 0.00
L 0.00 0.00
L 0.00 1000.00
M 627.00 264.00 
C 627.43 268.63 627.62 275.19 626.00 279.00
C 626.00 279.50 626.00 280.50 626.00 281.00
C 627.69 284.97 626.36 289.24 626.00 293.00
C 626.00 308.03 625.23 323.22 626.00 339.00 C 626.77 354.78 623.76 373.64 626.00 389.00 C 628.24 404.36 624.85 413.80 613.75 422.75 C 602.65 431.71 598.49 439.07 588.75 447.75 C 579.01 456.44 572.55 464.34 563.75 472.75 C 554.95 481.16 547.45 489.19 538.75 497.75 C 530.05 506.31 522.27 514.21 513.75 522.75 C 505.24 531.30 497.20 539.08 488.75 547.75 C 480.30 556.43 472.21 563.93 463.75 572.75 C 455.29 581.57 446.59 594.05 438.08 582.92 C 429.58 571.79 422.82 566.52 414.00 559.00
C 411.98 557.27 410.54 554.83 410.00 554.00
C 402.11 546.11 394.25 539.07 384.26 534.74 C 374.26 530.42 360.46 532.73 349.00 533.00
C 340.47 538.94 331.64 543.57 323.75 553.75 C 315.86 563.93 306.92 567.46 298.75 576.75 C 290.58 586.04 283.83 596.72 270.98 594.98 C 258.12 593.23 246.90 593.59 235.92 588.07 C 224.94 582.54 216.38 575.35 209.75 566.25 C 203.13 557.14 199.49 551.62 196.10 539.90 C 192.71 528.19 194.08 513.47 194.00 498.00 C 193.92 482.53 193.99 464.13 194.00 448.00 C 194.01 431.87 193.90 413.28 194.00 397.00 C 194.10 380.72 193.74 363.06 194.00 347.00 C 194.26 330.94 193.41 312.44 194.00 297.00 C 194.59 281.56 192.72 263.69 193.81 252.75 C 194.91 241.80 198.75 233.38 203.80 222.75 C 208.85 212.13 219.10 204.23 227.56 199.22 C 236.03 194.22 244.72 189.15 256.67 187.67 C 268.62 186.19 284.28 187.08 298.00 187.00 C 311.72 186.92 330.33 187.06 345.00 187.00 C 359.67 186.94 374.26 186.27 389.02 186.98 C 403.79 187.68 417.61 185.96 432.08 186.07 C 446.54 186.18 463.93 188.37 479.00 187.00 C 494.07 185.63 511.69 188.11 527.00 187.00 C 542.31 185.89 559.44 188.02 571.30 190.71 C 583.15 193.39 589.83 197.30 598.75 204.59 C 607.67 211.87 615.56 219.95 619.71 230.30 C 623.86 240.66 625.69 250.76 627.00 264.00
M 308.00 707.00 
C 302.86 713.01 296.96 718.91 291.00 724.00
C 273.79 738.70 264.74 754.32 247.81 766.26 C 230.89 778.19 203.97 770.20 198.69 749.30 C 193.41 728.40 210.24 713.50 226.25 700.25 C 242.25 687.00 253.05 669.49 268.25 656.25 C 283.44 643.01 294.90 627.16 311.25 613.25 C 327.59 599.34 338.80 583.86 355.75 569.75 C 372.70 555.64 388.31 583.37 402.25 595.75 C 416.18 608.13 432.22 626.10 446.00 640.00
C 541.81 546.03 634.07 450.35 731.00 355.00
C 727.94 347.13 717.37 342.79 713.25 335.75 C 709.13 328.71 696.36 325.10 696.41 316.25 C 696.45 307.41 708.83 306.12 716.01 305.01 C 723.19 303.89 736.27 300.16 744.00 299.00
C 742.94 296.27 751.55 297.69 758.00 296.00 C 764.45 294.31 766.46 294.48 773.70 292.69 C 780.93 290.90 794.32 288.10 803.02 286.02 C 811.73 283.95 811.29 284.59 818.22 282.22 C 825.16 279.86 828.25 281.03 832.13 279.08 C 836.01 277.13 843.46 277.40 848.00 281.00
C 851.26 290.78 842.81 298.70 842.67 308.67 C 842.54 318.65 836.71 330.16 835.74 339.75 C 834.76 349.34 828.69 363.28 827.23 374.23 C 825.76 385.18 821.80 398.14 819.94 409.08 C 818.07 420.02 812.36 431.94 800.92 423.08 C 789.49 414.22 787.47 409.05 777.00 399.00
C 762.63 411.41 754.85 417.14 743.25 429.25 C 731.65 441.36 717.26 453.31 707.75 464.75 C 698.24 476.19 684.39 490.08 671.75 500.75 C 659.11 511.42 646.33 526.60 634.25 538.25 C 622.17 549.90 608.52 563.11 597.25 575.25 C 585.97 587.39 575.05 600.58 561.75 612.75 C 548.45 624.92 538.73 637.75 525.25 650.25 C 511.76 662.74 502.26 673.45 489.75 685.75 C 477.25 698.06 466.71 714.43 448.99 716.99 C 431.27 719.56 416.33 698.27 404.25 686.75 C 392.16 675.24 378.63 661.11 367.00 649.00
C 346.29 667.05 328.09 687.80 308.00 707.00 Z"/>
</g>
<g fill="#000000" fill-opacity="0.99" stroke="None">
<path d="
M 410.00 554.00 
C 411.70 555.70 412.71 557.39 414.00 559.00
C 422.82 566.52 429.58 571.79 438.08 582.92 C 446.59 594.05 455.29 581.57 463.75 572.75 C 472.21 563.93 480.30 556.43 488.75 547.75 C 497.20 539.08 505.24 531.30 513.75 522.75 C 522.27 514.21 530.05 506.31 538.75 497.75 C 547.45 489.19 554.95 481.16 563.75 472.75 C 572.55 464.34 579.01 456.44 588.75 447.75 C 598.49 439.07 602.65 431.71 613.75 422.75 C 624.85 413.80 628.24 404.36 626.00 389.00 C 623.76 373.64 626.77 354.78 626.00 339.00 C 625.23 323.22 626.00 308.03 626.00 293.00
C 626.00 289.00 626.00 285.00 626.00 281.00
C 626.00 280.50 626.00 279.50 626.00 279.00
C 626.00 274.16 626.99 268.02 627.00 264.00
C 625.69 250.76 623.86 240.66 619.71 230.30 C 615.56 219.95 607.67 211.87 598.75 204.59 C 589.83 197.30 583.15 193.39 571.30 190.71 C 559.44 188.02 542.31 185.89 527.00 187.00 C 511.69 188.11 494.07 185.63 479.00 187.00 C 463.93 188.37 446.54 186.18 432.08 186.07 C 417.61 185.96 403.79 187.68 389.02 186.98 C 374.26 186.27 359.67 186.94 345.00 187.00 C 330.33 187.06 311.72 186.92 298.00 187.00 C 284.28 187.08 268.62 186.19 256.67 187.67 C 244.72 189.15 236.03 194.22 227.56 199.22 C 219.10 204.23 208.85 212.13 203.80 222.75 C 198.75 233.38 194.91 241.80 193.81 252.75 C 192.72 263.69 194.59 281.56 194.00 297.00 C 193.41 312.44 194.26 330.94 194.00 347.00 C 193.74 363.06 194.10 380.72 194.00 397.00 C 193.90 413.28 194.01 431.87 194.00 448.00 C 193.99 464.13 193.92 482.53 194.00 498.00 C 194.08 513.47 192.71 528.19 196.10 539.90 C 199.49 551.62 203.13 557.14 209.75 566.25 C 216.38 575.35 224.94 582.54 235.92 588.07 C 246.90 593.59 258.12 593.23 270.98 594.98 C 283.83 596.72 290.58 586.04 298.75 576.75 C 306.92 567.46 315.86 563.93 323.75 553.75 C 331.64 543.57 340.47 538.94 349.00 533.00
C 360.46 532.73 374.26 530.42 384.26 534.74 C 394.25 539.07 402.11 546.11 410.00 554.00
M 385.00 271.00 
C 387.63 268.77 387.95 264.13 387.00 260.00 C 386.05 255.87 388.24 250.29 389.00 248.00
C 389.14 244.73 390.13 243.06 393.00 240.00
C 400.62 243.78 417.30 237.18 423.25 243.75 C 429.19 250.33 424.13 260.77 426.00 271.00
C 430.47 272.65 437.86 271.73 444.03 273.98 C 450.20 276.22 454.28 281.54 460.68 284.32 C 467.08 287.10 469.28 295.49 474.92 299.08 C 480.55 302.67 481.72 311.81 486.00 314.00
C 486.06 319.00 485.07 323.97 484.00 328.00
C 470.37 329.14 458.13 333.98 445.00 335.00
C 440.73 323.60 436.44 312.47 424.75 308.80 C 413.06 305.14 395.07 302.61 383.92 310.92 C 372.77 319.23 373.21 337.55 382.25 345.75 C 391.28 353.95 404.05 356.33 415.75 359.26 C 427.44 362.19 438.27 364.43 451.07 368.93 C 463.88 373.42 473.82 379.36 481.77 390.23 C 489.72 401.10 491.24 404.19 492.65 419.69 C 494.05 435.20 491.21 446.01 485.41 456.75 C 479.60 467.48 470.60 477.96 460.70 483.70 C 450.81 489.45 437.44 493.35 426.00 494.00
C 427.27 501.46 424.09 510.31 426.00 516.00
C 415.85 521.76 401.89 517.75 391.00 519.00
C 386.56 511.34 389.13 501.61 389.00 494.00
C 377.04 491.57 370.45 491.04 362.08 486.87 C 353.71 482.70 345.10 477.31 337.75 468.25 C 330.40 459.18 327.07 453.72 324.68 442.32 C 322.29 430.93 341.74 431.35 345.00 427.00
C 351.23 428.37 357.88 425.37 364.00 426.00
C 368.13 438.22 374.13 453.68 391.22 457.78 C 408.31 461.87 427.60 461.74 440.75 448.75 C 453.90 435.77 443.92 417.27 432.23 411.42 C 420.54 405.58 405.96 403.60 390.92 399.94 C 375.88 396.27 363.62 392.66 349.92 382.08 C 336.22 371.50 330.95 358.62 330.00 341.00 C 329.05 323.38 332.49 306.38 344.23 294.23 C 355.97 282.08 370.89 272.53 385.00 271.00 Z"/>
</g>
<g fill="#000000" fill-opacity="0.01" stroke="None">
<path d="
M 389.00 248.00 
C 388.67 255.68 392.00 267.91 385.00 271.00
C 370.89 272.53 355.97 282.08 344.23 294.23 C 332.49 306.38 329.05 323.38 330.00 341.00 C 330.95 358.62 336.22 371.50 349.92 382.08 C 363.62 392.66 375.88 396.27 390.92 399.94 C 405.96 403.60 420.54 405.58 432.23 411.42 C 443.92 417.27 453.90 435.77 440.75 448.75 C 427.60 461.74 408.31 461.87 391.22 457.78 C 374.13 453.68 368.13 438.22 364.00 426.00
C 357.88 425.37 351.23 428.37 345.00 427.00
C 341.74 431.35 322.29 430.93 324.68 442.32 C 327.07 453.72 330.40 459.18 337.75 468.25 C 345.10 477.31 353.71 482.70 362.08 486.87 C 370.45 491.04 377.04 491.57 389.00 494.00
C 389.13 501.61 386.56 511.34 391.00 519.00
C 401.89 517.75 415.85 521.76 426.00 516.00
C 424.09 510.31 427.27 501.46 426.00 494.00
C 437.44 493.35 450.81 489.45 460.70 483.70 C 470.60 477.96 479.60 467.48 485.41 456.75 C 491.21 446.01 494.05 435.20 492.65 419.69 C 491.24 404.19 489.72 401.10 481.77 390.23 C 473.82 379.36 463.88 373.42 451.07 368.93 C 438.27 364.43 427.44 362.19 415.75 359.26 C 404.05 356.33 391.28 353.95 382.25 345.75 C 373.21 337.55 372.77 319.23 383.92 310.92 C 395.07 302.61 413.06 305.14 424.75 308.80 C 436.44 312.47 440.73 323.60 445.00 335.00
C 458.13 333.98 470.37 329.14 484.00 328.00
C 485.07 323.97 486.06 319.00 486.00 314.00
C 481.72 311.81 480.55 302.67 474.92 299.08 C 469.28 295.49 467.08 287.10 460.68 284.32 C 454.28 281.54 450.20 276.22 444.03 273.98 C 437.86 271.73 430.47 272.65 426.00 271.00
C 424.13 260.77 429.19 250.33 423.25 243.75 C 417.30 237.18 400.62 243.78 393.00 240.00
C 390.13 243.06 389.14 244.73 389.00 248.00
M 455.00 484.00 
C 455.61 484.61 453.34 482.34 455.00 484.00 Z"/>
</g>
<g fill="#030404" fill-opacity="0.45" stroke="None">
<path d="
M 385.00 271.00 
C 392.00 267.91 388.67 255.68 389.00 248.00
C 388.24 250.29 386.05 255.87 387.00 260.00 C 387.95 264.13 387.63 268.77 385.00 271.00 Z"/>
</g>
<g fill="#555555" fill-opacity="0.02" stroke="None">
<path d="
M 626.00 279.00 
C 627.62 275.19 627.43 268.63 627.00 264.00
C 626.99 268.02 626.00 274.16 626.00 279.00 Z"/>
</g>
<g fill="#000001" fill-opacity="0.98" stroke="None">
<path d="
M 291.00 724.00 
C 296.59 718.41 302.46 712.54 308.00 707.00
C 328.09 687.80 346.29 667.05 367.00 649.00
C 378.63 661.11 392.16 675.24 404.25 686.75 C 416.33 698.27 431.27 719.56 448.99 716.99 C 466.71 714.43 477.25 698.06 489.75 685.75 C 502.26 673.45 511.76 662.74 525.25 650.25 C 538.73 637.75 548.45 624.92 561.75 612.75 C 575.05 600.58 585.97 587.39 597.25 575.25 C 608.52 563.11 622.17 549.90 634.25 538.25 C 646.33 526.60 659.11 511.42 671.75 500.75 C 684.39 490.08 698.24 476.19 707.75 464.75 C 717.26 453.31 731.65 441.36 743.25 429.25 C 754.85 417.14 762.63 411.41 777.00 399.00
C 787.47 409.05 789.49 414.22 800.92 423.08 C 812.36 431.94 818.07 420.02 819.94 409.08 C 821.80 398.14 825.76 385.18 827.23 374.23 C 828.69 363.28 834.76 349.34 835.74 339.75 C 836.71 330.16 842.54 318.65 842.67 308.67 C 842.81 298.70 851.26 290.78 848.00 281.00
C 843.46 277.40 836.01 277.13 832.13 279.08 C 828.25 281.03 825.16 279.86 818.22 282.22 C 811.29 284.59 811.73 283.95 803.02 286.02 C 794.32 288.10 780.93 290.90 773.70 292.69 C 766.46 294.48 764.45 294.31 758.00 296.00 C 751.55 297.69 742.94 296.27 744.00 299.00
C 736.27 300.16 723.19 303.89 716.01 305.01 C 708.83 306.12 696.45 307.41 696.41 316.25 C 696.36 325.10 709.13 328.71 713.25 335.75 C 717.37 342.79 727.94 347.13 731.00 355.00
C 634.07 450.35 541.81 546.03 446.00 640.00
C 432.22 626.10 416.18 608.13 402.25 595.75 C 388.31 583.37 372.70 555.64 355.75 569.75 C 338.80 583.86 327.59 599.34 311.25 613.25 C 294.90 627.16 283.44 643.01 268.25 656.25 C 253.05 669.49 242.25 687.00 226.25 700.25 C 210.24 713.50 193.41 728.40 198.69 749.30 C 203.97 770.20 230.89 778.19 247.81 766.26 C 264.74 754.32 273.79 738.70 291.00 724.00 Z"/>
</g>
<g fill="#383838" fill-opacity="0.03" stroke="None">
<path d="
M 626.00 293.00 
C 626.36 289.24 627.69 284.97 626.00 281.00
C 626.00 285.00 626.00 289.00 626.00 293.00 Z"/>
</g>
<g fill="#A5A5A5" fill-opacity="0.01" stroke="None">
<path d="
M 455.00 484.00 
C 453.34 482.34 455.61 484.61 455.00 484.00 Z"/>
</g>
<g fill="#6B6969" fill-opacity="0.23" stroke="None">
<path d="
M 414.00 559.00 
C 412.71 557.39 411.70 555.70 410.00 554.00
C 410.54 554.83 411.98 557.27 414.00 559.00 Z"/>
</g>
<g fill="#323232" fill-opacity="0.03" stroke="None">
<path d="
M 291.00 724.00 
C 296.96 718.91 302.86 713.01 308.00 707.00
C 302.46 712.54 296.59 718.41 291.00 724.00 Z"/>
</g>
</svg>